<svg width="800" height="800" viewBox="0 0 800 800" fill="none" xmlns="http://www.w3.org/2000/svg">
<g clip-path="url(#clip0_1_17)">
<path d="M782.476 188.074L782.479 188.077C782.484 188.083 782.489 188.09 782.494 188.101C782.498 188.112 782.5 188.121 782.5 188.131V742.858C782.5 764.7 764.701 782.5 742.856 782.5H57.1422C35.2997 782.5 17.5 764.701 17.5 742.856V57.1422C17.5 35.2994 35.2994 17.5 57.1422 17.5H611.869C611.879 17.5 611.888 17.5017 611.899 17.5062C611.91 17.5108 611.917 17.516 611.923 17.5214L611.926 17.5244L782.476 188.074Z" fill="white" stroke="black" stroke-width="35"/>
<rect x="127" y="203" width="545" height="505" rx="57" fill="#D9D9D9"/>
</g>
<defs>
<clipPath id="clip0_1_17">
<rect width="800" height="800" fill="white"/>
</clipPath>
</defs>
</svg>
